<?xml version="1.0" encoding="UTF-8" standalone="no"?>
<!-- Created with Inkscape (http://www.inkscape.org/) -->

<svg
   width="219.79466mm"
   height="100mm"
   viewBox="0 0 219.79466 100"
   version="1.1"
   id="svg1"
   xml:space="preserve"
   inkscape:version="1.4 (86a8ad7, 2024-10-11)"
   sodipodi:docname="Cloud_med.svg"
   xmlns:inkscape="http://www.inkscape.org/namespaces/inkscape"
   xmlns:sodipodi="http://sodipodi.sourceforge.net/DTD/sodipodi-0.dtd"
   xmlns:xlink="http://www.w3.org/1999/xlink"
   xmlns="http://www.w3.org/2000/svg"
   xmlns:svg="http://www.w3.org/2000/svg"><sodipodi:namedview
     id="namedview1"
     pagecolor="#505050"
     bordercolor="#eeeeee"
     borderopacity="1"
     inkscape:showpageshadow="0"
     inkscape:pageopacity="0"
     inkscape:pagecheckerboard="0"
     inkscape:deskcolor="#505050"
     inkscape:document-units="mm"
     inkscape:zoom="0.71891835"
     inkscape:cx="391.56046"
     inkscape:cy="99.454966"
     inkscape:window-width="1920"
     inkscape:window-height="1009"
     inkscape:window-x="-8"
     inkscape:window-y="-8"
     inkscape:window-maximized="1"
     inkscape:current-layer="layer1" /><defs
     id="defs1"><linearGradient
       id="linearGradient1"
       inkscape:collect="always"><stop
         style="stop-color:#1d4f91;stop-opacity:1;"
         offset="0"
         id="stop1" /><stop
         style="stop-color:#13294b;stop-opacity:1;"
         offset="1"
         id="stop2" /></linearGradient><linearGradient
       inkscape:collect="always"
       xlink:href="#linearGradient1"
       id="linearGradient2"
       x1="92.705772"
       y1="199.61455"
       x2="92.705772"
       y2="259.97144"
       gradientUnits="userSpaceOnUse" /></defs><g
     inkscape:label="Layer 1"
     inkscape:groupmode="layer"
     id="layer1"
     transform="translate(6.6622552,-146.9863)"><path
       style="fill:url(#linearGradient2);fill-opacity:1"
       d="M -6.6622552,206.50708 V 165.5284 h 1.019337 c 7.429781,0 14.252295,4.55945 17.1811132,11.48205 l 0.183212,0.43305 0.663936,-0.19303 c 3.22879,-0.9387 6.431573,-0.54882 8.824256,1.07419 0.595637,0.40404 0.576145,0.40561 0.576145,-0.0465 0,-8.02261 12.094997,-12.41653 18.906067,-6.86827 0.574247,0.46778 0.490819,0.47069 1.045621,-0.0364 5.470521,-4.99975 14.777614,-3.54178 19.245385,3.01482 0.24925,0.36578 0.47916,0.69503 0.51091,0.73167 0.0318,0.0366 0.2228,-0.19195 0.42454,-0.508 3.38272,-5.29914 11.48092,-4.40432 13.8065,1.52557 0.13914,0.35481 0.28491,0.60263 0.3491,0.59354 0.0606,-0.009 0.50878,-0.13462 0.99591,-0.28009 7.98013,-2.38302 16.47844,0.93302 21.09727,8.23213 0.24348,0.38476 0.4528,0.71355 0.46517,0.73066 0.0124,0.0171 0.39729,-0.31899 0.85537,-0.74687 6.774463,-6.32773 17.555013,-5.91791 24.270863,0.92265 0.4611,0.46966 0.84536,0.84385 0.8539,0.83153 0.008,-0.0123 0.20014,-0.36531 0.42577,-0.78441 3.70382,-6.87958 11.80209,-10.96857 19.6036,-9.89827 l 0.38564,0.0529 0.55658,-0.74999 c 4.52563,-6.09822 13.97091,-6.12422 18.38704,-0.0506 0.26205,0.36042 0.52445,0.72063 0.58311,0.80048 0.0983,0.13376 0.1433,0.1216 0.57232,-0.15445 4.60233,-2.96135 10.87529,-2.88734 14.11911,0.16658 0.24499,0.23065 0.45454,0.40391 0.46566,0.38503 0.0111,-0.0189 0.14793,-0.41534 0.304,-0.88101 2.83653,-8.46311 10.95489,-13.6014 17.92841,-11.34729 0.14614,0.0472 0.27556,-0.0522 0.71967,-0.55304 3.22901,-3.64134 8.07881,-5.90332 13.00865,-6.0673 l 1.4605,-0.0486 v 45.09727 45.09728 H 103.23508 -6.6622552 Z"
       id="path1"
       sodipodi:nodetypes="ccsscsssscsccsccsccsccscsssssscscscccccc" /><path
       style="fill:#4698cb;fill-opacity:1;stroke:none"
       d="m 168.50584,198.80235 c -0.62517,-1.31565 -1.8778,-2.47091 -3.048,-3.30193 -5.62611,-3.99538 -13.76313,-2.12708 -17.01775,3.97926 -0.58434,1.09635 -1.0837,2.39317 -1.18559,3.64067 -1.03762,-0.3933 -1.94342,-1.19862 -2.96333,-1.6672 -2.28162,-1.04825 -4.76923,-1.6908 -7.28133,-1.8008 -8.57391,-0.37543 -16.45323,5.23253 -18.90432,13.45867 -0.83899,2.81576 -0.62822,5.42682 -0.56902,8.29733 -1.76427,-1.49983 -4.81279,-1.74912 -7.02733,-1.53837 -5.47015,0.52056 -10.3572,2.4549 -14.731993,5.82684 -1.40686,1.08436 -2.66976,2.30368 -3.89467,3.58559 -0.31674,0.33147 -0.87773,1.31208 -1.35591,1.3646 -0.51131,0.0562 -1.51396,-0.9432 -1.94609,-1.2214 -1.52767,-0.98347 -3.20101,-1.76274 -4.91067,-2.37066 -4.15988,-1.47917 -8.76043,-1.54747 -13.03867,-0.60253 -1.54433,0.3411 -3.24998,0.73387 -4.65666,1.47526 1.74853,-7.26039 -4.0727,-14.13933 -11.34534,-14.13933 -0.88429,-6.99134 -6.1306,-12.00834 -13.12333,-12.84516 -2.15404,-0.25777 -4.06588,0.23084 -6.18066,0.39916 0,-9.31755 -7.05267,-17.45826 -16.002,-19.63169 -3.32565,-0.80766 -6.82102,-0.64701 -9.9059996,0.89945 -1.16582,0.58441 -2.60304,1.5461 -3.21734,2.73024 -3.22838,-1.35084 -6.08291999,-2.45557 -9.652,-2.45533 -0.76121,5e-5 -1.53225,0.0753 -2.286,0.18037 -0.23696,0.033 -0.68045,0.0181 -0.8443096,0.22114 -0.20749,0.25712 -0.087,0.89555 -0.087,1.20715 v 3.13267 12.192 47.66733 H 213.12519 v -48.006 -13.54666 -3.81 c 0,-0.44183 0.13946,-1.17051 -0.0511,-1.57561 -0.12665,-0.26924 -0.54182,-0.39626 -0.79557,-0.50487 -0.76853,-0.32893 -1.56656,-0.6172 -2.37067,-0.84666 -2.30493,-0.65774 -4.8168,-0.88933 -7.19666,-0.60469 -1.22211,0.14617 -2.52136,0.70547 -3.72533,0.75083 -0.86964,0.0328 -2.00116,-0.61644 -2.87867,-0.79192 -1.73176,-0.34631 -3.48812,-0.36365 -5.24933,-0.32051 -7.93533,0.19438 -15.24838,4.62946 -19.21837,11.42876 -1.02592,1.75709 -1.86151,3.70446 -2.38143,5.67267 -0.28509,1.07922 -0.27631,2.48266 -0.7522,3.47133 z"
       id="path5"
       sodipodi:nodetypes="csscssscssscsssccscsscssssccccccsssssssssscc" /><path
       style="fill:#000000"
       id="path4"
       d="" /><path
       style="fill:#000000"
       id="path3"
       d="" /><path
       style="fill:#000000"
       id="path2"
       d="" /></g></svg>
