<?xml version="1.0" encoding="UTF-8" standalone="no"?>
<!-- Created with Inkscape (http://www.inkscape.org/) -->

<svg
   width="152.52921mm"
   height="114.85254mm"
   viewBox="0 0 152.5292 114.85254"
   version="1.1"
   id="svg1"
   xml:space="preserve"
   inkscape:version="1.4 (86a8ad7, 2024-10-11)"
   sodipodi:docname="Clouds_mobile.svg"
   xmlns:inkscape="http://www.inkscape.org/namespaces/inkscape"
   xmlns:sodipodi="http://sodipodi.sourceforge.net/DTD/sodipodi-0.dtd"
   xmlns:xlink="http://www.w3.org/1999/xlink"
   xmlns="http://www.w3.org/2000/svg"
   xmlns:svg="http://www.w3.org/2000/svg"><sodipodi:namedview
     id="namedview1"
     pagecolor="#505050"
     bordercolor="#eeeeee"
     borderopacity="1"
     inkscape:showpageshadow="0"
     inkscape:pageopacity="0"
     inkscape:pagecheckerboard="0"
     inkscape:deskcolor="#505050"
     inkscape:document-units="mm"
     inkscape:zoom="0.71891835"
     inkscape:cx="92.500073"
     inkscape:cy="75.808331"
     inkscape:window-width="1920"
     inkscape:window-height="1009"
     inkscape:window-x="-8"
     inkscape:window-y="-8"
     inkscape:window-maximized="1"
     inkscape:current-layer="layer1"
     showgrid="false" /><defs
     id="defs1"><linearGradient
       id="linearGradient1"
       inkscape:collect="always"><stop
         style="stop-color:#1d4f91;stop-opacity:1;"
         offset="0"
         id="stop1" /><stop
         style="stop-color:#13294b;stop-opacity:1;"
         offset="1"
         id="stop2" /></linearGradient><linearGradient
       inkscape:collect="always"
       xlink:href="#linearGradient1"
       id="linearGradient2"
       x1="63.58942"
       y1="172.38036"
       x2="63.58942"
       y2="210.65544"
       gradientUnits="userSpaceOnUse" /></defs><g
     inkscape:label="Layer 1"
     inkscape:groupmode="layer"
     id="layer1"
     transform="translate(6.7042613,-116.0718)"><path
       style="fill:url(#linearGradient2);fill-opacity:1;stroke-width:0.832884"
       d="m -6.6751219,165.28775 v -40.97868 h 0.7071114 c 5.15401853,0 9.8867778,4.55945 11.918491,11.48205 l 0.1270936,0.43305 0.4605705,-0.19303 c 2.2398027,-0.9387 4.4615644,-0.54882 6.1213624,1.07419 0.413191,0.40404 0.39967,0.40561 0.39967,-0.0465 0,-8.02261 8.390266,-12.41653 13.115087,-6.86827 0.398353,0.46778 0.340479,0.47069 0.725344,-0.0364 3.794886,-4.99975 10.251191,-3.54178 13.35047,3.01482 0.172904,0.36578 0.332393,0.69503 0.354418,0.73167 0.02207,0.0366 0.154556,-0.19195 0.294503,-0.508 2.346582,-5.29914 7.964282,-4.40432 9.57753,1.52557 0.09652,0.35481 0.197641,0.60263 0.24217,0.59354 0.04204,-0.009 0.352939,-0.13462 0.69086,-0.28009 5.535793,-2.38302 11.431048,0.93302 14.635118,8.23213 0.168901,0.38476 0.314106,0.71355 0.322687,0.73066 0.0086,0.0171 0.275599,-0.31899 0.593368,-0.74687 4.699426,-6.32773 12.177865,-5.91791 16.836631,0.92265 0.319863,0.46966 0.586423,0.84385 0.592348,0.83153 0.0056,-0.0123 0.138836,-0.36531 0.295355,-0.78441 2.56933,-6.87958 8.187078,-10.96857 13.598963,-9.89827 l 0.267518,0.0529 0.386099,-0.74999 c 3.139414,-6.09822 9.691584,-6.12422 12.755034,-0.0506 0.18179,0.36042 0.36381,0.72063 0.40451,0.80048 0.0682,0.13376 0.0994,0.1216 0.39702,-0.15445 3.19262,-2.96135 7.54415,-2.88734 9.79438,0.16658 0.16995,0.23065 0.31531,0.40391 0.32302,0.38503 0.008,-0.0189 0.10264,-0.41534 0.21089,-0.88101 1.9677,-8.46311 7.59938,-13.6014 12.43688,-11.34729 0.10139,0.0472 0.19116,-0.0522 0.49924,-0.55304 2.23996,-3.64134 5.60426,-5.90332 9.02407,-6.0673 l 1.01314,-0.0486 v 45.09727 45.09728 H 69.560357 -6.6751219 Z"
       id="path1"
       sodipodi:nodetypes="ccsscsssscsccsccsccsccscsssssscscscccccc" /><path
       style="fill:#4698cb;fill-opacity:1;stroke:none;stroke-width:0.832884"
       d="m 114.8385,157.58302 c -0.43367,-1.31565 -1.30262,-2.47091 -2.11439,-3.30193 -3.90281,-3.99538 -9.54744,-2.12708 -11.80516,3.97926 -0.40536,1.09635 -0.75176,2.39317 -0.82244,3.64067 -0.719796,-0.3933 -1.348147,-1.19862 -2.055656,-1.6672 -1.582753,-1.04825 -3.308402,-1.6908 -5.051039,-1.8008 -5.947698,-0.37543 -11.41356,5.23253 -13.113874,13.45867 -0.582005,2.81576 -0.435795,5.42682 -0.394728,8.29733 -1.223869,-1.49983 -3.338619,-1.74912 -4.874839,-1.53837 -3.794628,0.52056 -7.184762,2.4549 -10.219543,5.82684 -0.975935,1.08436 -1.852006,2.30368 -2.701723,3.58559 -0.219721,0.33147 -0.608878,1.31208 -0.94059,1.3646 -0.354695,0.0562 -1.05023,-0.9432 -1.349998,-1.2214 -1.05974,-0.98347 -2.220532,-1.76274 -3.406519,-2.37066 -2.885696,-1.47917 -6.077086,-1.54747 -9.044889,-0.60253 -1.071297,0.3411 -2.254503,0.73387 -3.230312,1.47526 1.212952,-7.26039 -2.82522,-14.13933 -7.870231,-14.13933 -0.613429,-6.99134 -4.252781,-12.00834 -9.103618,-12.84516 -1.494251,-0.25777 -2.820489,0.23084 -4.287507,0.39916 0,-9.31755 -4.892417,-17.45826 -11.100543,-19.63169 -2.3069942,-0.80766 -4.7317228,-0.64701 -6.8717648,0.89945 -0.8087261,0.58441 -1.8057216,1.5461 -2.2318599,2.73024 -2.23951823,-1.35084 -4.2197048,-2.45557 -6.6955658,-2.45533 -0.5280492,5e-5 -1.0629175,0.0753 -1.5857918,0.18037 -0.1643786,0.033 -0.4720264,0.0181 -0.5856954,0.22114 -0.1439352,0.25712 -0.060351,0.89555 -0.060351,1.20715 v 3.13267 12.192 72.32532 H 145.79083 v -72.66399 -13.54666 -3.81 c 0,-0.44183 0.0967,-1.17051 -0.0355,-1.57561 -0.0878,-0.26924 -0.37586,-0.39626 -0.5519,-0.50487 -0.53312,-0.32893 -1.08671,-0.6172 -1.64452,-0.84666 -1.59892,-0.65774 -3.3414,-0.88933 -4.99229,-0.60469 -0.84778,0.14617 -1.74908,0.70547 -2.58426,0.75083 -0.60326,0.0328 -1.38819,-0.61644 -1.99692,-0.79192 -1.20133,-0.34631 -2.4197,-0.36365 -3.64145,-0.32051 -5.50472,0.19438 -10.57775,4.62946 -13.33174,11.42876 -0.71167,1.75709 -1.29132,3.70446 -1.65199,5.67267 -0.19775,1.07922 -0.19167,2.48266 -0.5218,3.47133 z"
       id="path5"
       sodipodi:nodetypes="csscssscssscsssccscsscssssccccccsssssssssscc" /><path
       style="fill:#000000"
       id="path4"
       d="" /><path
       style="fill:#000000"
       id="path3"
       d="" /><path
       style="fill:#000000"
       id="path2"
       d="" /></g></svg>
