<?xml version="1.0" encoding="UTF-8" standalone="no"?>
<!-- Created with Inkscape (http://www.inkscape.org/) -->

<svg
   width="462.11774mm"
   height="428.10852mm"
   viewBox="0 0 462.11774 428.10852"
   version="1.1"
   id="svg1"
   xml:space="preserve"
   sodipodi:docname="logo_nav.svg"
   inkscape:version="1.4 (86a8ad7, 2024-10-11)"
   xmlns:inkscape="http://www.inkscape.org/namespaces/inkscape"
   xmlns:sodipodi="http://sodipodi.sourceforge.net/DTD/sodipodi-0.dtd"
   xmlns="http://www.w3.org/2000/svg"
   xmlns:svg="http://www.w3.org/2000/svg"><sodipodi:namedview
     id="namedview1"
     pagecolor="#505050"
     bordercolor="#eeeeee"
     borderopacity="1"
     inkscape:showpageshadow="0"
     inkscape:pageopacity="0"
     inkscape:pagecheckerboard="0"
     inkscape:deskcolor="#505050"
     inkscape:document-units="mm"
     inkscape:zoom="0.1767767"
     inkscape:cx="593.96969"
     inkscape:cy="483.66104"
     inkscape:window-width="1920"
     inkscape:window-height="1009"
     inkscape:window-x="-8"
     inkscape:window-y="-8"
     inkscape:window-maximized="1"
     inkscape:current-layer="layer1" /><defs
     id="defs1" /><g
     inkscape:label="Layer 1"
     inkscape:groupmode="layer"
     id="layer1"
     transform="translate(-106.33527,-378.23115)"><path
       style="fill:#ffffff;fill-opacity:1"
       d="m 349.88521,677.16221 c -15.76465,-9.78759 -34.10966,-5.33992 -52.96832,-5.50353 -57.85325,-0.49664 -61.52376,-0.0963 -63.02802,1.01219 -4.18544,3.08411 -32.68237,4.80216 -43.22139,1.1511 -38.11234,-9.29081 -53.67883,-36.90713 -42.49237,-73.22456 12.02512,-39.04018 33.81641,-139.79004 167.30099,-140.81725 3.93226,-0.0303 9.83987,-11.43291 7.40559,-10.4352 -15.40363,6.04995 -31.59632,3.05613 -47.61682,3.65254 -28.72828,1.0695 -1.28724,-25.79486 0.55824,-23.87663 0.39876,0.41447 -10.40985,-3.64094 -13.31551,-5.02115 -4.15434,-1.97335 20.03922,-43.09681 68.0363,-42.23221 13.97067,0.25166 26.72696,7.54055 38.78618,12.9643 61.29679,27.56881 28.54162,6.06708 69.11973,23.63443 42.77963,18.52044 109.66107,60.0955 123.67081,141.58767 0.55294,24.49302 1.14231,78.67879 -25.95352,98.48535 -23.8746,18.04912 -53.50282,14.31761 -81.66588,11.09017 -32.66916,-3.0365 -104.61601,7.53278 -104.61601,7.53278 z"
       id="path4"
       sodipodi:nodetypes="csssssssssssssssc" /><path
       style="fill:#13294b;fill-opacity:1;stroke:#13294b;stroke-width:3;stroke-dasharray:none;stroke-opacity:1"
       d="m 354.74814,678.49567 c -2.07323,-0.24912 -6.15414,-1.14516 -11.74035,-2.57783 -2.69674,-0.69162 -5.8223,-1.969 -7.13326,-2.91528 l -1.05834,-0.76392 -46.56667,-0.0952 c -56.24303,-0.11502 -50.24685,-0.2423 -51.64759,1.09632 -3.2408,3.09709 -11.74739,3.83359 -32.17361,2.78559 -15.79867,-0.81057 -33.14464,-5.91751 -41.41837,-12.19423 -1.16227,-0.88174 -3.22447,-2.36701 -4.58266,-3.30059 -9.16292,-6.29836 -13.37604,-15.87877 -14.98106,-30.67919 -0.9588,-8.84148 0.96726,-7.32137 -10.155,-0.46702 -6.64891,4.09754 -8.12117,-0.24048 -4.52811,-2.20839 l 14.31834,-7.84215 0.13229,-1.97875 c 0.19341,-2.89291 0.54567,-8.82851 0.97221,-10.58152 0.89299,-3.67006 -11.83067,2.33545 -27.21006,10.73865 -4.505,2.4615 -6.73545,3.30931 -8.48095,2.01881 -1.75803,-1.29977 0.0926,-3.80045 4.424,-5.9778 0.58209,-0.29261 2.24896,-1.17125 3.70417,-1.95253 2.2643,-1.21567 6.55272,-3.0302 12.17084,-5.14977 2.16683,-0.81749 9.5097,-3.2426 13.05277,-4.31091 3.82844,-1.15435 3.24432,-0.51389 4.23767,-4.64644 0.45909,-1.90993 1.1766,-4.7426 1.59446,-6.29482 1.00258,-3.72428 1.00999,-3.89508 0.1651,-3.80702 -1.92874,0.20103 -8.40134,1.27034 -10.58334,1.74843 -10.37311,2.27281 -12.83772,2.4548 -13.77945,1.01753 -2.04053,-3.11424 5.7659,-5.91227 19.24751,-6.89883 6.59149,-0.48236 7.78409,-0.68589 7.99671,-1.36479 0.17553,-0.56047 1.46859,-3.5725 3.19924,-7.45226 0.47602,-1.06716 2.49295,-5.19466 4.48206,-9.17223 2.95586,-5.91074 3.6978,-7.7153 4.06124,-9.87777 3.50825,-20.87404 18.64882,-47.78417 33.70658,-59.90852 1.3582,-1.0936 3.42195,-2.79932 4.58612,-3.79048 2.16143,-1.84022 5.50862,-4.35882 8.53707,-6.42374 3.75976,-2.56355 8.65143,-5.72495 8.86971,-5.73232 0.12766,-0.004 0.62898,-0.31829 1.11405,-0.69771 0.48507,-0.37943 1.09317,-0.6934 1.35133,-0.69771 0.25816,-0.004 1.30646,-0.56347 2.32957,-1.24257 1.0231,-0.6791 1.98883,-1.23472 2.14607,-1.23472 0.15724,0 1.64893,-0.69467 3.31487,-1.54372 1.66595,-0.84904 3.42587,-1.6635 3.91094,-1.80991 0.48507,-0.1464 1.51694,-0.56036 2.29305,-0.91989 2.40584,-1.11451 13.53102,-4.97749 18.87362,-6.55346 10.23064,-3.01785 17.16643,-4.21804 29.10416,-5.03629 2.52237,-0.17289 6.17362,-0.47744 8.11389,-0.67677 1.94028,-0.19933 8.35161,-0.44392 14.24739,-0.54353 5.89579,-0.0996 10.7624,-0.22562 10.8147,-0.28002 0.7766,-0.80785 4.65233,-6.13265 4.54318,-6.24179 -0.0822,-0.0822 -0.50633,0.0329 -0.9426,0.25562 -5.36527,2.73947 -14.53957,2.45048 -26.36961,3.23392 -11.47707,0.76007 -22.26036,3.35286 -29.70742,-2.04167 -4.79542,-4.33238 -2.43209,-12.12232 6.29771,-20.75826 l 3.26335,-3.22827 -1.12752,-0.41885 c -10.6706,-3.96395 -13.80077,-6.25312 -12.93003,-9.45606 3.55899,-13.09144 18.94053,-28.11036 34.3803,-33.5698 15.69367,-5.54922 25.11329,-7.00645 39.41183,-6.09709 15.09241,0.95984 24.94593,4.26497 40.067,13.43951 1.80336,1.09416 3.62898,2.1964 4.05695,2.4494 11.41842,7.79414 24.74994,11.30829 38.17256,13.84598 3.73965,0.66032 8.74303,1.60964 13.05278,2.4766 4.06924,0.81857 9.95485,2.4816 14.3757,4.06198 6.49424,2.32159 7.79755,2.81924 11.66854,4.45541 5.1129,2.1611 18.38303,8.84884 22.46271,11.32053 14.1082,8.54748 27.72065,20.48493 41.11027,36.05171 11.05246,12.84956 17.12203,21.88843 21.85578,30.6928 12.47138,23.19575 19.26123,41.24137 24.13216,59.6183 4.05442,16.18387 3.81994,39.85255 2.54048,47.44861 -3.05097,22.31289 -13.36344,54.01723 -46.5998,65.34029 -11.10708,3.78399 -18.93566,4.28676 -37.39445,2.40156 -1.84326,-0.18826 -6.28826,-0.50904 -9.87778,-0.71286 -16.86375,-0.95757 -19.49952,-1.1131 -23.42494,-1.38232 -5.11082,-0.3505 -19.21503,0.37547 -26.49311,1.36366 -1.55223,0.21076 -4.09223,0.53953 -5.64445,0.73062 -2.99608,0.36882 -6.75328,0.89589 -10.23056,1.43516 -9.07755,1.40777 -18.69198,2.4658 -31.75,3.49395 -4.95889,0.39045 -16.63658,0.38264 -19.93194,-0.0133 z m 23.63611,-5.7769 c 9.86258,-0.81011 19.67203,-2.06977 29.45695,-3.54208 30.0364,-4.60138 52.42553,-3.91235 77.76058,-1.58646 10.34115,0.94937 24.01349,-0.007 30.36931,-2.1245 2.29277,-0.76383 28.85304,-10.20771 39.44012,-41.10596 5.69811,-16.63005 3.54013,-45.34491 2.34535,-53.44583 -2.44129,-16.55251 -3.31485,-20.02506 -7.98334,-31.73496 -8.04556,-18.25447 -16.81476,-36.31964 -27.90695,-52.9317 -7.65613,-11.42222 -18.56031,-24.1318 -27.06535,-31.54655 -8.33751,-7.1003 -17.27746,-13.57941 -26.63472,-19.27765 -33.42608,-19.09836 -63.57674,-22.20363 -77.7875,-22.45594 -5.94547,-0.10556 -10.23438,-0.3238 -10.49514,-0.53405 -0.5261,-0.42416 -0.58904,-2.25265 -0.0882,-2.56219 2.06713,-1.27756 -4.2898,-7.97428 -13.05278,-13.75044 -16.67237,-10.98969 -37.076,-13.35876 -64.21979,-7.45656 -16.37468,3.56054 -31.41028,15.25911 -38.01981,29.58162 -1.21373,2.6301 -1.10577,2.75521 4.16737,4.83012 7.80465,3.07102 22.63997,4.51778 32.70573,3.18952 6.84286,-0.90297 10.6677,-1.49366 12.62622,-1.94992 1.16416,-0.2712 3.78354,-0.88657 5.82083,-1.36748 7.74313,-1.82778 21.29275,-2.7555 22.50722,-1.54103 0.79825,0.79825 0.46923,1.9241 -0.81662,2.79439 -3.3699,2.2808 -2.92205,6.88375 0.73654,7.5701 1.997,0.37464 3.49983,-0.53684 8.77107,-5.31977 4.78818,-4.34461 8.1854,-5.65502 8.91705,-3.43958 0.62445,1.89085 -0.11042,2.69657 -5.36665,5.88412 -6.98769,4.23756 -11.54777,7.69369 -15.21811,11.53398 -0.9969,1.04306 -2.69653,2.61085 -3.77695,3.48398 -16.28158,13.15778 2.39985,18.11979 4.70756,18.66942 6.20351,1.47749 12.35328,3.45357 18.16806,5.83789 8.23633,3.37714 16.47379,7.91602 18.43087,9.05208 1.69871,0.98608 4.12045,2.35263 5.38163,3.03678 11.00074,5.96756 15.7262,9.30468 25.04722,17.68835 8.26857,7.43705 18.26532,17.76463 19.16459,19.79881 2.23291,3.36418 6.29046,11.56767 -1.97379,8.06526 -2.09961,-1.07114 -7.22888,-6.27655 -12.49446,-12.67996 -7.53311,-10.19881 -15.72907,-17.80286 -25.86301,-25.05977 -3.34557,-2.40029 -13.56951,-7.90107 -19.22639,-10.34436 -10.46986,-4.52204 -19.3395,-7.36978 -28.39861,-9.50576 -6.5336,-1.54051 -8.55297,-1.92826 -13.05278,-2.50638 -2.42535,-0.3116 -5.28285,-0.7242 -6.35,-0.91689 -3.40046,-0.61401 -17.197,-1.07567 -25.22362,-0.84403 -11.52356,0.33255 -21.20512,1.8424 -36.33611,5.66662 -13.72893,3.46987 -31.45219,11.68375 -42.15695,19.53772 -2.32493,1.70577 -3.58417,2.61212 -5.86722,4.22297 -10.2046,7.20005 -23.57587,22.76947 -28.40317,33.07245 -0.98329,2.09865 -2.57193,5.47304 -3.5303,7.49863 -3.4114,7.21025 -5.02466,13.35602 -6.11746,23.3046 -0.46101,4.19689 -0.71084,5.33696 -1.39151,6.35 -1.68211,2.50347 -9.72367,17.21914 -9.72367,17.79386 12.12898,0.30723 24.84287,0.54826 36.68669,3.35905 10.31967,3.16908 7.47973,5.18765 -2.99641,2.67305 -5.93406,-1.42435 -17.73585,-2.1581 -27.3293,-1.95371 l -8.27929,0.17638 -0.93325,2.82223 c -3.19377,9.65823 -3.2918,10.24769 -1.64636,9.90029 2.93189,-0.61903 13.36406,-2.37114 15.92659,-2.67493 1.57236,-0.1864 4.8432,-0.58486 7.26855,-0.88548 11.67729,-1.44736 24.09177,-1.11545 23.92215,0.63958 l -0.10965,1.13442 -3.70416,0.071 c -9.66314,0.18512 -28.31197,2.24872 -39.15834,4.33309 -6.8587,1.31805 -6.30816,1.19197 -6.79283,3.18067 -0.71923,2.95111 -1.4771,8.93569 -1.44236,11.64166 0.002,0.1654 1.41131,-0.41741 2.76866,-0.92757 1.35736,-0.51017 3.18229,-1.16081 4.05542,-1.44586 0.87312,-0.28505 3.175,-1.12794 5.11528,-1.87309 4.95781,-1.90401 14.33502,-4.9257 15.28592,-4.9257 0.23516,0 1.57516,-0.30768 2.97777,-0.68374 7.61011,-2.04036 21.07103,-4.29762 21.07103,-2.78548 0,0.94345 0.073,0.92472 -5.46805,1.40388 -5.68537,0.49164 -14.63604,3.62244 -20.28473,5.42006 -5.84434,1.8599 -13.69523,4.47143 -14.2875,4.75263 -0.38805,0.18423 -2.53118,1.0733 -4.7625,1.97571 -2.23132,0.9024 -4.63732,1.87859 -5.34667,2.16931 -1.10488,0.45282 -1.30712,0.71238 -1.41111,1.81102 -1.74195,18.40331 6.10517,24.32077 28.80639,21.7227 22.33774,-2.55648 35.48119,0.57811 46.95324,11.19791 3.61925,3.35037 7.5603,6.32022 11.2551,8.48148 1.49997,0.8774 5.5039,2.74285 5.88715,2.74285 0.17682,0 0.75431,0.22381 1.28329,0.49736 0.52899,0.27355 3.02142,0.93572 5.53873,1.4715 12.25795,2.22188 25.72623,0.92058 38.26722,0.88883 19.21521,-0.0486 34.23532,-0.22571 34.95883,-0.41212 2.35685,-0.60722 9.18938,-6.67211 10.53784,-9.3539 0.34766,-0.69142 10.04454,-19.44296 40.58112,-22.52695 13.43526,-1.35686 21.22448,-0.15655 38.80556,5.9799 9.36969,3.27037 15.39987,4.17946 19.95856,3.00891 6.75915,-1.73557 12.88449,-1.28771 12.82204,0.93749 -0.19166,6.82993 -9.10132,6.71674 -32.07505,-0.40748 -10.14715,-3.14667 -18.88397,-4.76505 -30.75626,-5.6972 -10.07372,-0.79093 -22.51701,2.07531 -31.73293,7.30951 -6.74,3.82799 -16.18026,14.99571 -16.18026,19.14105 0,2.38404 7.14637,4.6713 7.85632,2.51448 4.16655,-12.65795 17.53448,-26.63363 20.38349,-21.3102 0.85666,1.60068 -0.0518,2.61329 -5.32379,5.93397 -6.71519,4.22974 -11.98268,17.11047 -7.49447,18.3264 5.5562,1.50527 9.13612,0.93766 10.08894,-1.59961 1.14475,-3.04838 3.80239,-9.45515 7.75474,-15.30781 3.5021,-5.18593 9.40962,-6.62447 8.23762,-2.00595 -0.11079,0.43657 -1.54159,1.905 -3.17956,3.2632 -8.06933,7.86084 -13.71822,18.45247 3.65727,16.96178 z m -118.6443,-55.22819 c -3.54764,-0.47448 -6.03986,-2.00922 -6.17056,-3.79989 -0.14106,-1.93252 0.69195,-2.1734 4.59767,-1.32952 3.57505,0.77243 7.3744,0.52131 11.47491,-0.75847 3.30797,-1.03242 3.96727,-0.85084 3.96727,1.0926 0,3.31787 -6.94975,5.72073 -13.86929,4.79528 z m -37.01891,-28.2315 c 1.20198,-1.33168 1.85209,-2.36416 1.85209,-2.9414 0,-2.30972 6.27179,-4.77276 8.76099,-3.44058 1.11569,0.5971 1.02828,2.33637 -0.16693,3.32117 -17.48351,14.40575 -8.11226,27.7947 13.80733,19.72688 4.88511,-1.5346 8.42481,-4.93437 11.73841,-8.65993 1.53307,-1.73079 2.63207,-1.72024 4.88426,0.0469 12.10389,9.49708 34.86405,8.33175 38.26029,-1.95894 1.06802,-3.23614 -3.84377,-10.26799 -9.14643,-13.09428 -4.33335,-2.30965 -3.55425,-5.34774 1.37139,-5.34774 2.06383,0 2.23687,0.0677 3.38153,1.32292 2.09575,2.29818 2.50261,2.69776 4.35613,4.2782 1.56815,1.33712 7.11157,6.79902 4.79175,15.51474 -2.31426,8.69482 -17.04349,13.96779 -31.04489,11.11387 -3.90606,-0.79618 -4.97538,-1.18305 -10.49641,-3.79749 -4.16229,-1.97102 -3.36926,-2.04406 -6.57906,0.60599 -4.07831,3.36711 -8.72416,5.99828 -12.04614,6.82231 -28.17829,6.9898 -34.74906,-11.29812 -23.72431,-23.51262 z m 164.83543,14.48089 c -10.53572,-5.1604 -21.78498,-7.76415 -33.3375,-9.42679 -4.75286,-0.65961 -20.21758,-0.79882 -25.67356,-0.23111 -3.30838,0.34425 -3.92391,0.21679 -3.7299,-0.77237 0.51774,-2.63974 31.1169,-3.9273 37.69374,-1.58608 5.41552,1.05971 10.7112,2.65109 16.05139,4.04503 7.71132,2.00293 13.93472,5.2638 13.93472,7.30136 0,1.84289 -1.36735,2.02837 -4.93889,0.66996 z m -131.05695,-9.83289 c -7.1912,-2.67232 -10.40301,-5.63238 -10.40301,-9.58759 0,-5.32842 6.18923,-7.26793 11.65352,-3.65184 l 1.35416,0.89614 1.42419,-1.3177 c 2.32911,-2.15498 3.14438,-2.84364 5.79051,-3.0056 4.27317,-0.26154 5.87924,1.88851 5.87924,5.87215 0,6.37075 -9.68402,13.02952 -15.69861,10.79444 z m 67.20417,-8.84964 c 0,-1.62774 19.17141,-9.19731 49.91806,-11.70677 5.78095,-0.47182 25.34278,-0.23596 29.63333,0.3573 1.55223,0.21462 4.56848,0.62023 6.70278,0.90135 7.54035,0.99316 10.22256,2.42707 11.1125,3.24199 1.63703,1.49902 1.05,4.14068 -2.21552,3.47517 -30.38443,-6.60791 -61.48185,-3.35404 -91.31152,4.4123 -2.58656,0.69873 -3.83963,0.47637 -3.83963,-0.68134 z m -106.36251,-6.25121 c -6.67427,-1.03962 -12.87639,-5.25773 -12.87639,-8.75734 0,-2.82766 2.96533,-3.7813 7.33127,-2.35772 4.75454,1.55029 5.94168,1.87026 10.21436,2.75314 3.82398,0.79017 5.4887,0.93855 11.03996,0.98405 6.95873,0.057 7.39775,0.13923 7.39775,1.38518 0,3.47257 -14.74154,7.29572 -23.10695,5.99269 z m 104.79655,-0.0963 c -0.77191,-1.24897 5.01808,-4.26547 14.61874,-7.61615 7.52698,-2.63965 15.00458,-5.48067 22.75417,-7.41667 7.9242,-2.31992 16.13497,-3.14961 24.26616,-4.37089 9.85581,-1.4946 14.71578,-1.1082 14.71578,1.17002 0,1.8877 -0.5225,2.06915 -6.81462,2.3665 -13.65421,0.17671 -26.73166,3.1727 -43.10343,7.72053 -14.3226,4.69166 -21.27402,7.04155 -22.10444,7.45327 -1.68937,0.83759 -4.01336,1.20954 -4.33236,0.69339 z m -38.40979,-6.04437 c -5.31175,-0.83091 -7.22862,-3.60548 -3.55255,-5.14212 1.03823,-0.434 2.08573,-0.64822 7.54496,-1.54302 5.2089,-0.85377 9.59502,-2.24452 14.81667,-4.69805 9.35387,-4.39519 13.40556,-4.39184 13.40556,0.0111 0,3.97515 -6.6276,8.55265 -15.8045,10.91572 -2.41781,0.6226 -13.39584,0.92791 -16.41014,0.45639 z m -64.53593,99.48501 c 3.59969,-1.28964 1.18668,-8.40292 -5.00399,-14.75118 -3.90464,-4.00403 -4.3967,-4.97823 -3.14612,-6.2288 1.55547,-1.55547 6.13397,1.76869 8.16374,5.92718 1.16613,2.38915 4.70353,5.05252 6.47589,10.93618 1.0256,3.40467 1.47993,3.62349 5.13266,2.47207 3.86588,-1.21861 2.62386,-4.31294 -4.64735,-11.57819 -7.78097,-7.77458 -13.9371,-11.32154 -21.17288,-12.19911 -14.55543,-2.9903 -31.11402,2.46302 -40.36618,0.58829 -2.93099,-0.24803 -5.40059,-1.16713 -8.01141,-2.4961 -6.28621,-3.25253 -6.52261,-2.43399 -1.38911,4.80969 6.19966,8.74809 16.66001,15.97288 27.36531,18.90076 15.56987,4.25834 19.10752,3.58114 18.58669,-3.55795 -0.22508,-3.08524 -1.35757,-6.82732 -2.8426,-9.39278 -1.05768,-1.8272 -1.181,-3.36841 -0.34358,-4.29375 4.13664,-4.57093 7.88282,12.27686 7.88282,16.81209 0,3.73898 0.0437,3.80506 2.92684,4.42185 1.91663,0.41002 8.90666,0.16092 10.38927,-0.37025 z m 87.04918,-222.78762 c 12.22101,-1.61066 20.91102,-5.58583 30.07431,-13.7572 2.5121,-2.24018 2.49069,-2.18549 1.36745,-3.4927 -0.85139,-0.99081 -1.63204,-3.05954 -1.63204,-4.32491 0,-2.54787 -3.56544,-2.58116 -12.17083,-0.11362 -9.35707,2.68308 -19.9256,3.89526 -33.94481,3.89338 -11.03264,-0.002 -13.87718,1.24508 -19.36478,8.48621 -5.75334,7.59178 -5.03604,10.70252 3.95457,10.5146 6.37625,-0.13328 11.95972,-0.2964 17.95779,-0.51953 2.38484,0.24592 9.30429,-0.0992 13.75834,-0.68623 z"
       id="path2"
       sodipodi:nodetypes="ssscsssssssscssssssssssssssssssssscscssssssssssscssscssssssssssssssssssssssssssssssssssssssssssssssssssssssssssssssssssssssssssssssscssssscsssssssssssssssssssssssssssssssssssssssssssssssssssssssssssssssssssssssssssssscssssssssssssssssssssssssssssssssssssssssssssssssssssssssssscsss" /><path
       style="fill:#13294b;fill-opacity:1"
       d="m 327.73856,805.42425 c -3.48776,-3.48777 -4.05575,-11.14803 -1.99503,-26.90664 1.75132,-13.39261 1.72698,-13.52814 -2.9247,-16.28291 -2.6624,-1.5767 -8.36388,-5.72551 -11.38044,-8.28123 -2.3632,-2.00216 -3.45477,-4.15093 -2.90697,-5.72236 1.34232,-3.85058 6.34071,-1.71576 14.46807,6.17933 5.46195,5.30585 6.47228,2.93347 9.48974,-22.2831 0.95597,-7.98889 1.74789,-9.7824 4.06286,-9.20138 2.71475,0.68136 2.69696,1.58014 -0.34976,17.66804 -2.14883,11.34664 -2.60805,17.84029 -2.9688,41.98056 -0.30861,20.65101 -0.3355,20.94396 -2.09654,22.84236 -1.1392,1.22805 -2.17547,1.23028 -3.39843,0.007 z m 230.01598,-30.5328 c -2.3358,-2.43778 -4.81233,-9.59224 -5.91426,-17.08574 -0.65851,-4.47814 -0.65187,-46.65635 0.008,-49.66726 1.15075,-5.25215 2.23099,-7.23195 3.94596,-7.23195 2.34331,0 3.43894,3.12227 2.61455,7.4508 -0.76143,3.99791 -0.84384,7.86006 -0.47709,22.35892 0.51605,20.40144 0.97773,23.58114 5.17337,35.63056 2.53601,7.28314 2.61346,7.89157 1.1603,9.11433 -1.92064,1.61611 -4.64469,1.37776 -6.51065,-0.56966 z m -149.54937,0.76867 c -4.91864,-0.71832 -7.93911,-3.34045 -6.36303,-5.52387 2.35272,-3.25933 8.33447,-4.21504 16.19219,-2.58704 4.62865,0.95899 8.04876,1.06452 9.53039,0.29408 5.21351,-2.71101 3.2933,-8.09683 -3.91854,-10.99077 -5.68519,-2.28133 -10.46458,-4.8988 -12.3044,-6.73862 -11.93965,-11.93965 7.54394,-31.07315 23.68252,-23.25698 6.37521,3.08761 5.81619,10.16781 -0.65324,8.27358 -5.1856,-1.51833 -7.90937,-2.11578 -9.65812,-2.11847 -11.70339,-0.018 -12.62203,13.90037 -1.21056,18.34142 10.2079,3.97266 16.11741,8.20929 16.76054,12.01595 1.34436,7.95725 -16.05444,14.62783 -32.05775,12.29072 z m 119.68139,-0.79529 c -4.05768,-1.66917 -6.60989,-3.95341 -8.32539,-7.45123 -1.36105,-2.77514 -2.87763,-3.04976 -4.11842,-0.74575 -7.37338,13.69153 -19.43999,5.62786 -16.13452,-10.7821 3.84859,-19.10624 21.18855,-30.96496 21.20608,-14.50275 0.002,1.68293 0.11971,1.95521 1.32489,3.05939 l 1.32291,1.21206 0.22423,6.642 c 0.50404,14.93086 7.25425,19.30292 19.95821,12.92678 4.57599,-2.2967 5.04117,-2.24275 5.04117,0.58465 0,6.10029 -13.34912,11.99821 -20.49916,9.05695 z m -18.37618,-11.71916 c 3.94153,-2.76075 6.61155,-17.78917 3.16052,-17.78917 -3.07858,0 -7.60234,15.9787 -5.05178,17.84372 0.85554,0.62558 0.92303,0.62363 1.89126,-0.0546 z m -344.8284,11.05823 c -3.43947,-2.44348 -5.92859,-11.5928 -5.88059,-21.61545 0.0424,-8.86364 4.7487,-15.62581 7.48575,-10.75589 0.96462,1.71632 1.97393,1.83349 4.50559,0.52305 3.76291,-1.94774 13.5516,-2.82396 15.89261,-1.42259 3.59299,2.15084 1.41119,5.2599 -4.34591,6.1929 -2.41253,0.32109 -4.79512,0.95181 -7.23409,1.0528 -7.31086,0 -9.50856,5.18048 -7.18357,16.93334 1.64232,8.30199 0.43147,11.7 -3.23979,9.09184 z m 35.31605,-0.0514 c -8.72236,-4.0616 -9.34609,-24.23975 -1.01796,-32.93147 2.20573,-2.30203 6.85841,-1.40525 6.85841,1.32191 0,0.17113 0.70489,0.62296 1.56642,1.00405 5.13495,2.27143 8.48784,12.34812 6.77017,20.34687 -1.76583,8.22296 -8.33712,12.97801 -14.17704,10.25864 z m 5.77456,-7.45158 c 1.96241,-1.65126 3.25271,-7.61565 2.55882,-11.82808 -1.79891,-10.92077 -11.08099,-6.11086 -10.12313,5.24575 0.51766,6.13764 4.24164,9.37817 7.56431,6.58233 z m 70.01293,7.94644 c -2.47904,-0.58899 -4.30399,-2.90932 -4.32262,-5.49595 -0.0147,-2.04411 1.94631,-2.6076 3.76094,-1.08069 3.28022,2.76013 13.89355,1.59395 17.95606,-1.97299 2.14356,-1.88207 1.67343,-2.91785 -1.7928,-3.94992 -16.73046,-4.98148 -22.2678,-18.25263 -10.49465,-25.15216 6.82496,-3.99969 19.13771,-2.47662 19.13771,2.36731 0,1.87016 -1.13518,2.25236 -5.96806,2.00937 -8.37999,-0.42134 -12.72917,1.13972 -12.72917,4.56892 0,2.70389 1.35202,4.13979 6.17361,6.55662 13.61075,6.82239 17.60681,13.22873 10.97562,17.59572 -4.96525,3.26988 -17.5083,5.78647 -22.69664,4.55377 z M 143.48144,774.0625 c -0.63255,-0.31642 -1.71764,-1.34845 -2.4113,-2.29341 -1.38909,-1.89232 -1.89357,-2.03004 -4.19972,-1.14648 -15.68946,6.01114 -27.34027,-0.50503 -27.34027,-15.2911 0,-15.36545 11.54501,-22.08535 22.45477,-13.07005 4.584,3.788 7.27145,-2.61998 0.64503,-27.2039 -1.71762,-6.37233 -7.09814,-27.04891 -2.36739,-29.30923 3.46783,0.0637 7.51625,13.73973 10.3353,34.91378 1.52943,11.48768 2.13417,16.50647 3.16683,26.28194 0.65871,6.23555 1.20209,10.14762 1.59717,11.49895 0.12038,0.41175 0.57899,0.55381 1.7084,0.52917 3.42381,-0.0747 3.98458,2.35278 1.21942,5.27859 -0.98765,1.04503 -1.00814,1.13925 -0.65221,2.99861 0.98604,5.15099 -0.99303,8.39535 -4.15603,6.81313 z m -8.41631,-8.5532 c 2.83792,-1.28678 2.93915,-1.62976 1.63222,-5.53026 -4.65138,-13.88188 -16.23965,-19.3714 -18.91038,-8.9581 -2.71528,10.58703 7.32126,19.00303 17.27816,14.48836 z m 329.83711,8.43676 c -5.47309,-1.46087 -9.52716,-4.39868 -11.40919,-8.26774 -7.28611,-14.97872 4.95169,-38.59091 17.88249,-34.50333 11.27121,3.56297 9.88121,15.70463 -2.34981,20.52565 -7.02081,2.76734 -9.03888,-2.29492 -2.24779,-5.63853 8.33444,-4.10349 9.6014,-9.17222 2.29265,-9.17222 -12.14851,0 -16.46928,20.86822 -5.95694,28.77049 5.77513,4.34124 10.11567,4.07048 17.95593,-1.12008 5.92997,-3.92588 9.63054,-3.71097 8.4259,0.48934 -2.1005,7.32403 -14.16793,11.69915 -24.59324,8.91642 z m -229.80851,-0.81509 c -5.38317,-3.62772 -14.474,-25.39756 -11.91485,-28.53255 2.1167,-2.59299 3.56875,-0.72477 9.93897,12.78756 4.07249,8.63846 6.03058,6.22339 6.91166,-8.52469 0.43909,-7.34982 0.86022,-8.53182 3.03981,-8.53182 2.08152,0 3.58365,3.08853 5.32733,10.95353 1.33722,6.03164 1.85679,7.23137 3.05735,7.05975 1.50845,-0.21564 1.71461,-1.48885 2.03779,-12.58493 0.4119,-14.14243 0.85858,-16.81037 3.20782,-19.15961 3.41169,-3.41169 8.14606,-1.76975 5.51863,1.91393 l -0.81725,1.1458 -0.20034,16.40417 c -0.33421,27.36525 -2.22011,31.30359 -10.89601,22.75416 -4.65085,-4.58305 -4.82256,-4.6107 -6.53419,-1.05208 -2.6524,5.51457 -5.67927,7.38676 -8.67672,5.36678 z"
       id="path1"
       sodipodi:nodetypes="cssssssssssccsscssssssssssssssssssssssssscsssssssssssssssssssssssssssssssssssssssssssssssssssssssssssssssssssssssssssssscssss" /><path
       id="path3"
       style="fill:#13294b;fill-opacity:1;stroke:#13294b;stroke-width:0.79375;stroke-dasharray:none;stroke-opacity:1"
       d="m 180.03776,415.71725 c 20.51497,15.73031 22.51774,31.72313 22.60545,31.72313 0.0888,0 2.07107,-15.97815 22.60517,-31.72313 -12.99604,-6.65373 -21.67363,-24.60879 -22.60517,-24.60879 -1.00686,0 -9.60275,17.95165 -22.60545,24.60879 z"
       sodipodi:nodetypes="ccccc" /><path
       id="path3-8"
       style="fill:#13294b;fill-opacity:1;stroke:#13294b;stroke-width:0.79375;stroke-dasharray:none;stroke-opacity:1"
       d="m 164.29331,450.3224 c 11.74657,9.00694 12.89333,18.1642 12.94355,18.1642 0.0508,0 1.18586,-9.14886 12.94339,-18.1642 -7.44134,-3.80983 -12.41,-14.09064 -12.94339,-14.09064 -0.57651,0 -5.4984,10.27886 -12.94355,14.09064 z"
       sodipodi:nodetypes="ccccc" /></g></svg>
